<svg width="184" height="23" viewBox="0 0 184 23" fill="none" xmlns="http://www.w3.org/2000/svg">
<g clip-path="url(#clip0_4309_7)">
<path d="M6.05392 22.9999L0.819138 13.4514L6.05392 3.90193L11.7278 0.781006L19.1809 13.4514L13.5148 22.9999H6.05392Z" fill="white"/>
</g>
<path d="M34.3643 16.9609V18H28.7998V17.0908L31.541 13.4609C31.8783 13.0143 32.1357 12.6361 32.3135 12.3262C32.4912 12.0117 32.6143 11.7314 32.6826 11.4854C32.751 11.2347 32.7852 10.9795 32.7852 10.7197C32.7852 10.3916 32.7327 10.0954 32.6279 9.83105C32.5231 9.56217 32.3704 9.34798 32.1699 9.18848C31.9694 9.02897 31.7279 8.94922 31.4453 8.94922C31.0762 8.94922 30.7731 9.03581 30.5361 9.20898C30.3037 9.3776 30.1328 9.61458 30.0234 9.91992C29.9141 10.2253 29.8594 10.5762 29.8594 10.9727H28.6494C28.6494 10.4121 28.752 9.89941 28.957 9.43457C29.1667 8.96973 29.4788 8.60059 29.8936 8.32715C30.3083 8.04915 30.8255 7.91016 31.4453 7.91016C31.9785 7.91016 32.4342 8.02181 32.8125 8.24512C33.1953 8.46387 33.487 8.77376 33.6875 9.1748C33.8926 9.57129 33.9951 10.0361 33.9951 10.5693C33.9951 10.861 33.9541 11.1572 33.8721 11.458C33.7946 11.7542 33.6852 12.0505 33.5439 12.3467C33.4072 12.6429 33.2454 12.9346 33.0586 13.2217C32.8717 13.5088 32.6712 13.7913 32.457 14.0693L30.249 16.9609H34.3643ZM41.0361 12.2305V13.748C41.0361 14.5638 40.9723 15.252 40.8447 15.8125C40.7217 16.373 40.5439 16.8242 40.3115 17.166C40.0791 17.5078 39.7988 17.7562 39.4707 17.9111C39.1471 18.0615 38.7826 18.1367 38.377 18.1367C38.0579 18.1367 37.7594 18.0889 37.4814 17.9932C37.208 17.8975 36.9619 17.7448 36.7432 17.5352C36.5244 17.321 36.3376 17.043 36.1826 16.7012C36.0277 16.3594 35.9092 15.9447 35.8271 15.457C35.7451 14.9694 35.7041 14.3997 35.7041 13.748V12.2305C35.7041 11.4147 35.7679 10.7311 35.8955 10.1797C36.0231 9.62826 36.2031 9.1862 36.4355 8.85352C36.6725 8.51628 36.9528 8.27474 37.2764 8.12891C37.6045 7.98307 37.9691 7.91016 38.3701 7.91016C38.6937 7.91016 38.9922 7.95801 39.2656 8.05371C39.5436 8.14486 39.7897 8.29297 40.0039 8.49805C40.2227 8.69857 40.4095 8.96745 40.5645 9.30469C40.7194 9.63737 40.8356 10.0452 40.9131 10.5283C40.9951 11.0114 41.0361 11.5788 41.0361 12.2305ZM39.833 13.9531V12.0186C39.833 11.5719 39.8125 11.18 39.7715 10.8428C39.7305 10.501 39.6712 10.2093 39.5938 9.96777C39.5163 9.72624 39.416 9.53027 39.293 9.37988C39.1745 9.22949 39.0378 9.12012 38.8828 9.05176C38.7279 8.97884 38.557 8.94238 38.3701 8.94238C38.1377 8.94238 37.9303 8.99935 37.748 9.11328C37.5703 9.22266 37.4176 9.39811 37.29 9.63965C37.167 9.88118 37.0736 10.1979 37.0098 10.5898C36.946 10.9818 36.9141 11.458 36.9141 12.0186V13.9531C36.9141 14.3997 36.9346 14.7939 36.9756 15.1357C37.0212 15.4775 37.0827 15.7738 37.1602 16.0244C37.2422 16.2705 37.3424 16.4733 37.4609 16.6328C37.5794 16.7923 37.7161 16.9108 37.8711 16.9883C38.026 17.0612 38.1947 17.0977 38.377 17.0977C38.6185 17.0977 38.8281 17.0384 39.0059 16.9199C39.1882 16.8014 39.3408 16.6169 39.4639 16.3662C39.5869 16.111 39.6781 15.7852 39.7373 15.3887C39.8011 14.9876 39.833 14.5091 39.833 13.9531ZM46.2383 7.99219V18H45.0283V9.57129L42.9365 10.501V9.35938L46.0537 7.99219H46.2383ZM55.248 14.6504V15.6895H49.1641V14.9443L52.8623 8.04688H53.833L52.8623 10.043L50.5107 14.6504H55.248ZM54.1406 8.04688V18H52.9307V8.04688H54.1406ZM64.3125 15.4844C64.3125 15.252 64.2852 15.0469 64.2305 14.8691C64.1758 14.6868 64.0801 14.5228 63.9434 14.377C63.8066 14.2311 63.6152 14.0921 63.3691 13.96C63.123 13.8278 62.8109 13.6934 62.4326 13.5566C62.0225 13.4108 61.651 13.249 61.3184 13.0713C60.9857 12.889 60.7008 12.6816 60.4639 12.4492C60.2314 12.2168 60.0514 11.9502 59.9238 11.6494C59.7962 11.3486 59.7324 11.0046 59.7324 10.6172C59.7324 10.2298 59.7985 9.87207 59.9307 9.54395C60.0674 9.21582 60.2588 8.93099 60.5049 8.68945C60.7555 8.44336 61.0563 8.25195 61.4072 8.11523C61.7581 7.97852 62.1501 7.91016 62.583 7.91016C63.2301 7.91016 63.7747 8.05371 64.2168 8.34082C64.6634 8.62337 65.0007 8.99479 65.2285 9.45508C65.4564 9.91081 65.5703 10.3984 65.5703 10.918H64.3125C64.3125 10.5443 64.251 10.2139 64.1279 9.92676C64.0094 9.63509 63.8226 9.40723 63.5674 9.24316C63.3167 9.07454 62.9886 8.99023 62.583 8.99023C62.2184 8.99023 61.9176 9.06087 61.6807 9.20215C61.4482 9.34342 61.2751 9.53483 61.1611 9.77637C61.0518 10.0179 60.9971 10.2936 60.9971 10.6035C60.9971 10.8132 61.0335 11.0046 61.1064 11.1777C61.1794 11.3464 61.291 11.5036 61.4414 11.6494C61.5964 11.7952 61.7878 11.9297 62.0156 12.0527C62.248 12.1758 62.5215 12.2943 62.8359 12.4082C63.3236 12.5677 63.7406 12.7454 64.0869 12.9414C64.4333 13.1374 64.7158 13.3584 64.9346 13.6045C65.1533 13.846 65.3128 14.1217 65.4131 14.4316C65.5179 14.737 65.5703 15.0833 65.5703 15.4707C65.5703 15.8763 65.502 16.2432 65.3652 16.5713C65.2331 16.8994 65.0394 17.1797 64.7842 17.4121C64.529 17.6445 64.2214 17.8245 63.8613 17.9521C63.5013 18.0752 63.0957 18.1367 62.6445 18.1367C62.2526 18.1367 61.8675 18.0729 61.4893 17.9453C61.1156 17.8177 60.776 17.6263 60.4707 17.3711C60.1654 17.1159 59.9215 16.8014 59.7393 16.4277C59.557 16.0495 59.4658 15.612 59.4658 15.1152H60.7236C60.7236 15.457 60.7738 15.751 60.874 15.9971C60.9743 16.2386 61.1133 16.4391 61.291 16.5986C61.4688 16.7581 61.6715 16.8766 61.8994 16.9541C62.1318 17.027 62.3802 17.0635 62.6445 17.0635C63.0091 17.0635 63.3145 16.9997 63.5605 16.8721C63.8112 16.7445 63.998 16.5622 64.1211 16.3252C64.2487 16.0882 64.3125 15.8079 64.3125 15.4844ZM69.7539 10.6035V11.5742H66.3018V10.6035H69.7539ZM67.4297 8.80566H68.6396V16.168C68.6396 16.4186 68.6693 16.6077 68.7285 16.7354C68.7923 16.863 68.8721 16.9473 68.9678 16.9883C69.0635 17.0293 69.166 17.0498 69.2754 17.0498C69.3574 17.0498 69.4486 17.0407 69.5488 17.0225C69.6491 16.9997 69.7174 16.9814 69.7539 16.9678L69.7471 18C69.665 18.0319 69.5557 18.0615 69.4189 18.0889C69.2822 18.1208 69.109 18.1367 68.8994 18.1367C68.6396 18.1367 68.3981 18.0752 68.1748 17.9521C67.9515 17.8291 67.7715 17.624 67.6348 17.3369C67.498 17.0452 67.4297 16.6533 67.4297 16.1611V8.80566ZM70.8066 14.6572V13.9531C70.8066 13.3789 70.8796 12.8753 71.0254 12.4424C71.1712 12.0049 71.374 11.6403 71.6338 11.3486C71.8936 11.057 72.1966 10.8382 72.543 10.6924C72.8893 10.542 73.2607 10.4668 73.6572 10.4668C74.0628 10.4668 74.4388 10.542 74.7852 10.6924C75.1315 10.8382 75.4346 11.057 75.6943 11.3486C75.9587 11.6403 76.1637 12.0049 76.3096 12.4424C76.4554 12.8753 76.5283 13.3789 76.5283 13.9531V14.6572C76.5283 15.2314 76.4554 15.7373 76.3096 16.1748C76.1637 16.6077 75.9609 16.9701 75.7012 17.2617C75.4414 17.5534 75.1383 17.7721 74.792 17.918C74.4456 18.0638 74.0719 18.1367 73.6709 18.1367C73.2699 18.1367 72.8962 18.0638 72.5498 17.918C72.2035 17.7721 71.8981 17.5534 71.6338 17.2617C71.374 16.9701 71.1712 16.6077 71.0254 16.1748C70.8796 15.7373 70.8066 15.2314 70.8066 14.6572ZM72.0166 13.9531V14.6572C72.0166 15.0628 72.0576 15.4183 72.1396 15.7236C72.2217 16.029 72.3379 16.2842 72.4883 16.4893C72.6387 16.6943 72.8141 16.8493 73.0146 16.9541C73.2152 17.0544 73.4339 17.1045 73.6709 17.1045C73.9443 17.1045 74.1836 17.0544 74.3887 16.9541C74.5983 16.8493 74.7715 16.6943 74.9082 16.4893C75.0449 16.2842 75.1475 16.029 75.2158 15.7236C75.2842 15.4183 75.3184 15.0628 75.3184 14.6572V13.9531C75.3184 13.5475 75.2773 13.1943 75.1953 12.8936C75.1133 12.5882 74.9971 12.333 74.8467 12.1279C74.6963 11.9183 74.5186 11.7633 74.3135 11.6631C74.113 11.5583 73.8942 11.5059 73.6572 11.5059C73.4248 11.5059 73.2083 11.5583 73.0078 11.6631C72.8073 11.7633 72.6318 11.9183 72.4814 12.1279C72.3356 12.333 72.2217 12.5882 72.1396 12.8936C72.0576 13.1943 72.0166 13.5475 72.0166 13.9531ZM79.2969 12.1826V18H78.0869V10.6035H79.2285L79.2969 12.1826ZM79.0029 14.0215L78.5107 14.001C78.5062 13.4951 78.5632 13.028 78.6816 12.5996C78.8047 12.1667 78.9779 11.7907 79.2012 11.4717C79.429 11.1527 79.7002 10.9066 80.0146 10.7334C80.3291 10.5557 80.6777 10.4668 81.0605 10.4668C81.3613 10.4668 81.6348 10.5169 81.8809 10.6172C82.127 10.7129 82.3366 10.8678 82.5098 11.082C82.6829 11.2962 82.8151 11.5742 82.9062 11.916C83.002 12.2533 83.0498 12.6657 83.0498 13.1533V18H81.8398V13.1396C81.8398 12.7523 81.7965 12.4424 81.71 12.21C81.6279 11.973 81.5003 11.8021 81.3271 11.6973C81.1585 11.5879 80.9443 11.5332 80.6846 11.5332C80.4476 11.5332 80.2266 11.5993 80.0215 11.7314C79.8164 11.8636 79.6364 12.0459 79.4814 12.2783C79.3311 12.5107 79.2126 12.7773 79.126 13.0781C79.0439 13.3743 79.0029 13.6888 79.0029 14.0215ZM87.5137 18.1367C87.0716 18.1367 86.6729 18.0706 86.3174 17.9385C85.9619 17.8063 85.6589 17.6058 85.4082 17.3369C85.1576 17.0635 84.9661 16.7194 84.834 16.3047C84.7018 15.89 84.6357 15.4001 84.6357 14.835V14.001C84.6357 13.3493 84.7109 12.7979 84.8613 12.3467C85.0163 11.8955 85.2236 11.5332 85.4834 11.2598C85.7432 10.9818 86.0371 10.7812 86.3652 10.6582C86.6934 10.5306 87.0306 10.4668 87.377 10.4668C87.8418 10.4668 88.2383 10.542 88.5664 10.6924C88.8945 10.8428 89.1611 11.0661 89.3662 11.3623C89.5713 11.6585 89.7217 12.0231 89.8174 12.4561C89.9176 12.889 89.9678 13.388 89.9678 13.9531V14.6572H85.3467V13.625H88.7578V13.4541C88.7396 13.0713 88.6872 12.734 88.6006 12.4424C88.5186 12.1507 88.3818 11.9229 88.1904 11.7588C87.999 11.5902 87.7279 11.5059 87.377 11.5059C87.1536 11.5059 86.9463 11.5446 86.7549 11.6221C86.568 11.695 86.4062 11.8249 86.2695 12.0117C86.1374 12.194 86.0326 12.4469 85.9551 12.7705C85.8822 13.0941 85.8457 13.5042 85.8457 14.001V14.835C85.8457 15.2314 85.8822 15.5732 85.9551 15.8604C86.0326 16.1429 86.1442 16.3776 86.29 16.5645C86.4404 16.7467 86.6227 16.8835 86.8369 16.9746C87.0557 17.0612 87.304 17.1045 87.582 17.1045C87.9876 17.1045 88.3226 17.027 88.5869 16.8721C88.8512 16.7126 89.0814 16.5098 89.2773 16.2637L89.9131 17.0225C89.7809 17.2093 89.6077 17.3893 89.3936 17.5625C89.1839 17.7311 88.9242 17.8701 88.6143 17.9795C88.3089 18.0843 87.9421 18.1367 87.5137 18.1367ZM99.791 14.835H101.049C101.017 15.5186 100.878 16.1087 100.632 16.6055C100.39 17.0977 100.037 17.4759 99.5723 17.7402C99.112 18.0046 98.5355 18.1367 97.8428 18.1367C97.346 18.1367 96.8971 18.0387 96.4961 17.8428C96.0951 17.6468 95.751 17.3665 95.4639 17.002C95.1813 16.6328 94.9648 16.1908 94.8145 15.6758C94.6641 15.1608 94.5889 14.582 94.5889 13.9395V12.1006C94.5889 11.4626 94.6641 10.8861 94.8145 10.3711C94.9694 9.85612 95.1904 9.41634 95.4775 9.05176C95.7692 8.68262 96.1224 8.40007 96.5371 8.2041C96.9564 8.00814 97.4303 7.91016 97.959 7.91016C98.6061 7.91016 99.153 8.04004 99.5996 8.2998C100.051 8.55501 100.397 8.93099 100.639 9.42773C100.885 9.91992 101.021 10.5238 101.049 11.2393H99.791C99.7591 10.7152 99.6771 10.2891 99.5449 9.96094C99.4128 9.62826 99.2168 9.38444 98.957 9.22949C98.7018 9.06999 98.3691 8.99023 97.959 8.99023C97.5944 8.99023 97.2777 9.06315 97.0088 9.20898C96.7445 9.35482 96.5257 9.56445 96.3525 9.83789C96.1839 10.1068 96.0563 10.4326 95.9697 10.8154C95.8877 11.1937 95.8467 11.6175 95.8467 12.0869V13.9395C95.8467 14.377 95.8809 14.7848 95.9492 15.1631C96.0221 15.5413 96.1361 15.874 96.291 16.1611C96.4505 16.4437 96.6579 16.6647 96.9131 16.8242C97.1683 16.9837 97.4782 17.0635 97.8428 17.0635C98.3031 17.0635 98.6676 16.9883 98.9365 16.8379C99.2054 16.6875 99.4036 16.4482 99.5312 16.1201C99.6634 15.792 99.75 15.3636 99.791 14.835ZM103.797 11.7656V18H102.587V10.6035H103.756L103.797 11.7656ZM105.636 10.5625L105.643 11.7383C105.542 11.7155 105.451 11.7018 105.369 11.6973C105.292 11.6882 105.201 11.6836 105.096 11.6836C104.868 11.6836 104.667 11.7292 104.494 11.8203C104.326 11.9115 104.18 12.0391 104.057 12.2031C103.934 12.3672 103.836 12.5632 103.763 12.791C103.69 13.0143 103.64 13.2604 103.612 13.5293L103.298 13.7344C103.298 13.2878 103.332 12.8685 103.4 12.4766C103.473 12.0846 103.585 11.7383 103.735 11.4375C103.886 11.1322 104.077 10.8952 104.31 10.7266C104.547 10.5534 104.829 10.4668 105.157 10.4668C105.23 10.4668 105.319 10.4782 105.424 10.501C105.533 10.5192 105.604 10.5397 105.636 10.5625ZM109.361 18.1367C108.919 18.1367 108.521 18.0706 108.165 17.9385C107.81 17.8063 107.507 17.6058 107.256 17.3369C107.005 17.0635 106.814 16.7194 106.682 16.3047C106.549 15.89 106.483 15.4001 106.483 14.835V14.001C106.483 13.3493 106.559 12.7979 106.709 12.3467C106.864 11.8955 107.071 11.5332 107.331 11.2598C107.591 10.9818 107.885 10.7812 108.213 10.6582C108.541 10.5306 108.878 10.4668 109.225 10.4668C109.689 10.4668 110.086 10.542 110.414 10.6924C110.742 10.8428 111.009 11.0661 111.214 11.3623C111.419 11.6585 111.569 12.0231 111.665 12.4561C111.765 12.889 111.815 13.388 111.815 13.9531V14.6572H107.194V13.625H110.605V13.4541C110.587 13.0713 110.535 12.734 110.448 12.4424C110.366 12.1507 110.229 11.9229 110.038 11.7588C109.847 11.5902 109.576 11.5059 109.225 11.5059C109.001 11.5059 108.794 11.5446 108.603 11.6221C108.416 11.695 108.254 11.8249 108.117 12.0117C107.985 12.194 107.88 12.4469 107.803 12.7705C107.73 13.0941 107.693 13.5042 107.693 14.001V14.835C107.693 15.2314 107.73 15.5732 107.803 15.8604C107.88 16.1429 107.992 16.3776 108.138 16.5645C108.288 16.7467 108.47 16.8835 108.685 16.9746C108.903 17.0612 109.152 17.1045 109.43 17.1045C109.835 17.1045 110.17 17.027 110.435 16.8721C110.699 16.7126 110.929 16.5098 111.125 16.2637L111.761 17.0225C111.629 17.2093 111.455 17.3893 111.241 17.5625C111.032 17.7311 110.772 17.8701 110.462 17.9795C110.157 18.0843 109.79 18.1367 109.361 18.1367ZM116.901 16.7354V12.7227C116.901 12.431 116.856 12.1963 116.765 12.0186C116.678 11.8408 116.546 11.7109 116.368 11.6289C116.195 11.5469 115.976 11.5059 115.712 11.5059C115.457 11.5059 115.236 11.5583 115.049 11.6631C114.867 11.7679 114.725 11.9069 114.625 12.0801C114.529 12.2533 114.481 12.4447 114.481 12.6543H113.271C113.271 12.39 113.328 12.1279 113.442 11.8682C113.561 11.6084 113.729 11.3737 113.948 11.1641C114.167 10.9499 114.429 10.7812 114.734 10.6582C115.044 10.5306 115.391 10.4668 115.773 10.4668C116.229 10.4668 116.632 10.542 116.983 10.6924C117.334 10.8382 117.61 11.0775 117.811 11.4102C118.011 11.7428 118.111 12.1849 118.111 12.7363V16.3867C118.111 16.6328 118.13 16.8949 118.166 17.1729C118.207 17.4508 118.264 17.6901 118.337 17.8906V18H117.086C117.027 17.8542 116.981 17.6605 116.949 17.4189C116.917 17.1729 116.901 16.945 116.901 16.7354ZM117.093 13.5156L117.106 14.4043H116.266C115.979 14.4043 115.716 14.4362 115.479 14.5C115.247 14.5638 115.047 14.6572 114.878 14.7803C114.709 14.8988 114.579 15.0469 114.488 15.2246C114.402 15.4023 114.358 15.6051 114.358 15.833C114.358 16.1292 114.399 16.3662 114.481 16.5439C114.563 16.7171 114.687 16.8424 114.851 16.9199C115.015 16.9974 115.222 17.0361 115.473 17.0361C115.778 17.0361 116.047 16.9655 116.279 16.8242C116.512 16.6829 116.692 16.512 116.819 16.3115C116.951 16.111 117.013 15.9242 117.004 15.751L117.271 16.3184C117.252 16.4961 117.193 16.6898 117.093 16.8994C116.997 17.1045 116.863 17.3027 116.689 17.4941C116.516 17.681 116.311 17.8359 116.074 17.959C115.842 18.0775 115.58 18.1367 115.288 18.1367C114.86 18.1367 114.484 18.0547 114.16 17.8906C113.841 17.7266 113.593 17.485 113.415 17.166C113.237 16.847 113.148 16.4528 113.148 15.9834C113.148 15.6279 113.21 15.2998 113.333 14.999C113.456 14.6982 113.638 14.4385 113.88 14.2197C114.121 13.9964 114.424 13.8232 114.789 13.7002C115.158 13.5771 115.584 13.5156 116.067 13.5156H117.093ZM122.691 10.6035V11.5742H119.239V10.6035H122.691ZM120.367 8.80566H121.577V16.168C121.577 16.4186 121.607 16.6077 121.666 16.7354C121.73 16.863 121.81 16.9473 121.905 16.9883C122.001 17.0293 122.104 17.0498 122.213 17.0498C122.295 17.0498 122.386 17.0407 122.486 17.0225C122.587 16.9997 122.655 16.9814 122.691 16.9678L122.685 18C122.603 18.0319 122.493 18.0615 122.356 18.0889C122.22 18.1208 122.047 18.1367 121.837 18.1367C121.577 18.1367 121.336 18.0752 121.112 17.9521C120.889 17.8291 120.709 17.624 120.572 17.3369C120.436 17.0452 120.367 16.6533 120.367 16.1611V8.80566ZM125.433 10.6035V18H124.229V10.6035H125.433ZM124.161 8.6416C124.161 8.43652 124.218 8.26335 124.332 8.12207C124.446 7.98079 124.617 7.91016 124.845 7.91016C125.073 7.91016 125.243 7.98079 125.357 8.12207C125.476 8.26335 125.535 8.43652 125.535 8.6416C125.535 8.83757 125.476 9.00618 125.357 9.14746C125.243 9.28418 125.073 9.35254 124.845 9.35254C124.617 9.35254 124.446 9.28418 124.332 9.14746C124.218 9.00618 124.161 8.83757 124.161 8.6416ZM129.261 16.8584L130.847 10.6035H132.077L129.883 18H129.083L129.261 16.8584ZM127.982 10.6035L129.637 16.8926L129.767 18H128.974L126.752 10.6035H127.982ZM135.885 18.1367C135.443 18.1367 135.044 18.0706 134.688 17.9385C134.333 17.8063 134.03 17.6058 133.779 17.3369C133.529 17.0635 133.337 16.7194 133.205 16.3047C133.073 15.89 133.007 15.4001 133.007 14.835V14.001C133.007 13.3493 133.082 12.7979 133.232 12.3467C133.387 11.8955 133.595 11.5332 133.854 11.2598C134.114 10.9818 134.408 10.7812 134.736 10.6582C135.064 10.5306 135.402 10.4668 135.748 10.4668C136.213 10.4668 136.609 10.542 136.938 10.6924C137.266 10.8428 137.532 11.0661 137.737 11.3623C137.942 11.6585 138.093 12.0231 138.188 12.4561C138.289 12.889 138.339 13.388 138.339 13.9531V14.6572H133.718V13.625H137.129V13.4541C137.111 13.0713 137.058 12.734 136.972 12.4424C136.89 12.1507 136.753 11.9229 136.562 11.7588C136.37 11.5902 136.099 11.5059 135.748 11.5059C135.525 11.5059 135.317 11.5446 135.126 11.6221C134.939 11.695 134.777 11.8249 134.641 12.0117C134.508 12.194 134.404 12.4469 134.326 12.7705C134.253 13.0941 134.217 13.5042 134.217 14.001V14.835C134.217 15.2314 134.253 15.5732 134.326 15.8604C134.404 16.1429 134.515 16.3776 134.661 16.5645C134.812 16.7467 134.994 16.8835 135.208 16.9746C135.427 17.0612 135.675 17.1045 135.953 17.1045C136.359 17.1045 136.694 17.027 136.958 16.8721C137.222 16.7126 137.452 16.5098 137.648 16.2637L138.284 17.0225C138.152 17.2093 137.979 17.3893 137.765 17.5625C137.555 17.7311 137.295 17.8701 136.985 17.9795C136.68 18.0843 136.313 18.1367 135.885 18.1367ZM146.405 8.92871L143.685 18H142.399L145.605 8.04688H146.412L146.405 8.92871ZM148.606 18L145.886 8.92871L145.872 8.04688H146.686L149.892 18H148.606ZM148.606 14.3154V15.3955H143.808V14.3154H148.606ZM155.101 10.6035H156.188V18.0615C156.188 18.7132 156.074 19.251 155.846 19.6748C155.622 20.0986 155.31 20.4108 154.909 20.6113C154.508 20.8164 154.046 20.9189 153.521 20.9189C153.335 20.9189 153.1 20.8848 152.817 20.8164C152.535 20.748 152.252 20.6432 151.97 20.502C151.687 20.3652 151.455 20.1921 151.272 19.9824L151.771 19.1416C152.031 19.4059 152.307 19.5951 152.599 19.709C152.89 19.8229 153.168 19.8799 153.433 19.8799C153.747 19.8799 154.021 19.8229 154.253 19.709C154.485 19.5951 154.665 19.4082 154.793 19.1484C154.921 18.8932 154.984 18.5514 154.984 18.123V12.2305L155.101 10.6035ZM150.849 14.6572V13.9668C150.849 13.3561 150.906 12.832 151.02 12.3945C151.133 11.9525 151.298 11.5902 151.512 11.3076C151.73 11.0205 151.993 10.8086 152.298 10.6719C152.603 10.5352 152.945 10.4668 153.323 10.4668C153.706 10.4668 154.036 10.5443 154.314 10.6992C154.592 10.8542 154.823 11.0798 155.005 11.376C155.192 11.6676 155.338 12.0231 155.442 12.4424C155.552 12.8571 155.627 13.3265 155.668 13.8506V14.7734C155.627 15.293 155.552 15.7601 155.442 16.1748C155.338 16.5895 155.189 16.9427 154.998 17.2344C154.811 17.526 154.579 17.7493 154.301 17.9043C154.023 18.0592 153.692 18.1367 153.31 18.1367C152.936 18.1367 152.599 18.0661 152.298 17.9248C151.997 17.779 151.737 17.5625 151.519 17.2754C151.304 16.9837 151.138 16.6214 151.02 16.1885C150.906 15.751 150.849 15.2406 150.849 14.6572ZM152.059 13.9668V14.6572C152.059 15.0674 152.088 15.4251 152.147 15.7305C152.207 16.0312 152.298 16.2819 152.421 16.4824C152.549 16.6784 152.71 16.8242 152.906 16.9199C153.107 17.0156 153.346 17.0635 153.624 17.0635C153.961 17.0635 154.237 16.9814 154.451 16.8174C154.665 16.6533 154.836 16.4368 154.964 16.168C155.096 15.8945 155.201 15.6006 155.278 15.2861V13.3447C155.233 13.1123 155.167 12.889 155.08 12.6748C154.998 12.4561 154.891 12.2624 154.759 12.0938C154.627 11.9206 154.467 11.7839 154.28 11.6836C154.098 11.5833 153.884 11.5332 153.638 11.5332C153.36 11.5332 153.12 11.5833 152.92 11.6836C152.719 11.7839 152.555 11.9342 152.428 12.1348C152.3 12.3353 152.207 12.5882 152.147 12.8936C152.088 13.1989 152.059 13.5566 152.059 13.9668ZM160.645 18.1367C160.202 18.1367 159.804 18.0706 159.448 17.9385C159.093 17.8063 158.79 17.6058 158.539 17.3369C158.288 17.0635 158.097 16.7194 157.965 16.3047C157.833 15.89 157.767 15.4001 157.767 14.835V14.001C157.767 13.3493 157.842 12.7979 157.992 12.3467C158.147 11.8955 158.354 11.5332 158.614 11.2598C158.874 10.9818 159.168 10.7812 159.496 10.6582C159.824 10.5306 160.161 10.4668 160.508 10.4668C160.973 10.4668 161.369 10.542 161.697 10.6924C162.025 10.8428 162.292 11.0661 162.497 11.3623C162.702 11.6585 162.853 12.0231 162.948 12.4561C163.049 12.889 163.099 13.388 163.099 13.9531V14.6572H158.478V13.625H161.889V13.4541C161.87 13.0713 161.818 12.734 161.731 12.4424C161.649 12.1507 161.513 11.9229 161.321 11.7588C161.13 11.5902 160.859 11.5059 160.508 11.5059C160.285 11.5059 160.077 11.5446 159.886 11.6221C159.699 11.695 159.537 11.8249 159.4 12.0117C159.268 12.194 159.163 12.4469 159.086 12.7705C159.013 13.0941 158.977 13.5042 158.977 14.001V14.835C158.977 15.2314 159.013 15.5732 159.086 15.8604C159.163 16.1429 159.275 16.3776 159.421 16.5645C159.571 16.7467 159.754 16.8835 159.968 16.9746C160.187 17.0612 160.435 17.1045 160.713 17.1045C161.118 17.1045 161.453 17.027 161.718 16.8721C161.982 16.7126 162.212 16.5098 162.408 16.2637L163.044 17.0225C162.912 17.2093 162.739 17.3893 162.524 17.5625C162.315 17.7311 162.055 17.8701 161.745 17.9795C161.44 18.0843 161.073 18.1367 160.645 18.1367ZM165.771 12.1826V18H164.562V10.6035H165.703L165.771 12.1826ZM165.478 14.0215L164.985 14.001C164.981 13.4951 165.038 13.028 165.156 12.5996C165.279 12.1667 165.452 11.7907 165.676 11.4717C165.904 11.1527 166.175 10.9066 166.489 10.7334C166.804 10.5557 167.152 10.4668 167.535 10.4668C167.836 10.4668 168.109 10.5169 168.355 10.6172C168.602 10.7129 168.811 10.8678 168.984 11.082C169.158 11.2962 169.29 11.5742 169.381 11.916C169.477 12.2533 169.524 12.6657 169.524 13.1533V18H168.314V13.1396C168.314 12.7523 168.271 12.4424 168.185 12.21C168.103 11.973 167.975 11.8021 167.802 11.6973C167.633 11.5879 167.419 11.5332 167.159 11.5332C166.922 11.5332 166.701 11.5993 166.496 11.7314C166.291 11.8636 166.111 12.0459 165.956 12.2783C165.806 12.5107 165.687 12.7773 165.601 13.0781C165.519 13.3743 165.478 13.6888 165.478 14.0215ZM173.906 17.1045C174.148 17.1045 174.367 17.0566 174.562 16.9609C174.763 16.8607 174.927 16.7057 175.055 16.4961C175.182 16.2819 175.255 16.0039 175.273 15.6621H176.408C176.39 16.1543 176.265 16.5872 176.032 16.9609C175.804 17.3301 175.504 17.6195 175.13 17.8291C174.761 18.0342 174.353 18.1367 173.906 18.1367C173.428 18.1367 173.011 18.0592 172.655 17.9043C172.304 17.7493 172.013 17.526 171.78 17.2344C171.552 16.9382 171.382 16.5804 171.268 16.1611C171.154 15.7373 171.097 15.2565 171.097 14.7188V13.8848C171.097 13.347 171.154 12.8685 171.268 12.4492C171.382 12.0254 171.552 11.6676 171.78 11.376C172.013 11.0798 172.304 10.8542 172.655 10.6992C173.011 10.5443 173.428 10.4668 173.906 10.4668C174.408 10.4668 174.84 10.5739 175.205 10.7881C175.574 10.9977 175.861 11.3031 176.066 11.7041C176.276 12.1006 176.39 12.5814 176.408 13.1465H175.273C175.255 12.7819 175.189 12.4788 175.075 12.2373C174.961 11.9912 174.806 11.8089 174.61 11.6904C174.414 11.5674 174.18 11.5059 173.906 11.5059C173.587 11.5059 173.323 11.5628 173.113 11.6768C172.908 11.7861 172.746 11.9456 172.628 12.1553C172.509 12.3649 172.425 12.6156 172.375 12.9072C172.329 13.1989 172.307 13.5247 172.307 13.8848V14.7188C172.307 15.0788 172.329 15.4069 172.375 15.7031C172.425 15.9948 172.507 16.2454 172.621 16.4551C172.74 16.6647 172.904 16.8265 173.113 16.9404C173.323 17.0498 173.587 17.1045 173.906 17.1045ZM179.525 17.2344L181.173 10.6035H182.458L180.018 19.1416C179.958 19.3239 179.879 19.5199 179.778 19.7295C179.683 19.9437 179.56 20.1465 179.409 20.3379C179.259 20.5293 179.079 20.6842 178.869 20.8027C178.66 20.9258 178.413 20.9873 178.131 20.9873C178.044 20.9873 177.933 20.9736 177.796 20.9463C177.664 20.9189 177.568 20.8962 177.509 20.8779V19.8525C177.536 19.8571 177.579 19.8617 177.639 19.8662C177.698 19.8753 177.741 19.8799 177.769 19.8799C178.006 19.8799 178.206 19.8411 178.37 19.7637C178.539 19.6908 178.682 19.5654 178.801 19.3877C178.919 19.2145 179.02 18.9753 179.102 18.6699L179.525 17.2344ZM178.459 10.6035L179.929 16.3457L180.243 17.6787L179.382 18.1436L177.14 10.6035H178.459Z" fill="#858585"/>
<defs>
<clipPath id="clip0_4309_7">
<rect width="20" height="23" fill="white"/>
</clipPath>
</defs>
</svg>
